<mxfile host="Electron" agent="Mozilla/5.0 (Windows NT 10.0; Win64; x64) AppleWebKit/537.36 (KHTML, like Gecko) draw.io/26.0.16 Chrome/132.0.6834.196 Electron/34.2.0 Safari/537.36" version="26.0.16">
  <diagram name="第 1 页" id="tdD2VmCRV8ijIXYGvqoA">
    <mxGraphModel dx="667" dy="481" grid="1" gridSize="10" guides="1" tooltips="1" connect="1" arrows="1" fold="1" page="1" pageScale="1" pageWidth="827" pageHeight="1169" math="0" shadow="0">
      <root>
        <mxCell id="0" />
        <mxCell id="1" parent="0" />
        <mxCell id="eE654J8oK0YXcX-Fjtj6-1" value="" style="rounded=0;whiteSpace=wrap;html=1;" parent="1" vertex="1">
          <mxGeometry x="220" y="170" width="90" height="90" as="geometry" />
        </mxCell>
        <mxCell id="eE654J8oK0YXcX-Fjtj6-2" value="" style="rounded=0;whiteSpace=wrap;html=1;" parent="1" vertex="1">
          <mxGeometry x="400" y="170" width="90" height="90" as="geometry" />
        </mxCell>
        <mxCell id="eE654J8oK0YXcX-Fjtj6-5" value="请求" style="text;html=1;align=center;verticalAlign=middle;resizable=0;points=[];autosize=1;strokeColor=none;fillColor=none;" parent="1" vertex="1">
          <mxGeometry x="329" y="175" width="50" height="30" as="geometry" />
        </mxCell>
        <mxCell id="eE654J8oK0YXcX-Fjtj6-7" value="响应" style="text;html=1;align=center;verticalAlign=middle;resizable=0;points=[];autosize=1;strokeColor=none;fillColor=none;" parent="1" vertex="1">
          <mxGeometry x="329" y="221" width="50" height="30" as="geometry" />
        </mxCell>
        <mxCell id="QCRAF_1NalTpn5bIDIF0-4" value="消息&lt;div&gt;处理&lt;/div&gt;&lt;div&gt;程序&lt;/div&gt;" style="rounded=1;whiteSpace=wrap;html=1;arcSize=5;" vertex="1" parent="1">
          <mxGeometry x="410" y="180" width="40" height="70" as="geometry" />
        </mxCell>
        <mxCell id="QCRAF_1NalTpn5bIDIF0-5" value="消息&lt;div&gt;处理&lt;/div&gt;&lt;div&gt;程序&lt;/div&gt;" style="rounded=1;whiteSpace=wrap;html=1;arcSize=5;" vertex="1" parent="1">
          <mxGeometry x="260" y="180" width="40" height="70" as="geometry" />
        </mxCell>
        <mxCell id="QCRAF_1NalTpn5bIDIF0-6" value="" style="endArrow=classic;html=1;rounded=0;exitX=0.996;exitY=0.394;exitDx=0;exitDy=0;exitPerimeter=0;" edge="1" parent="1">
          <mxGeometry width="50" height="50" relative="1" as="geometry">
            <mxPoint x="309.6" y="201.45999999999998" as="sourcePoint" />
            <mxPoint x="400" y="201" as="targetPoint" />
          </mxGeometry>
        </mxCell>
        <mxCell id="QCRAF_1NalTpn5bIDIF0-7" value="" style="endArrow=classic;html=1;rounded=0;exitX=-0.003;exitY=0.602;exitDx=0;exitDy=0;exitPerimeter=0;entryX=1.007;entryY=0.605;entryDx=0;entryDy=0;entryPerimeter=0;" edge="1" parent="1">
          <mxGeometry width="50" height="50" relative="1" as="geometry">
            <mxPoint x="399.66999999999996" y="225.17999999999995" as="sourcePoint" />
            <mxPoint x="310.70000000000005" y="225.45" as="targetPoint" />
          </mxGeometry>
        </mxCell>
        <mxCell id="QCRAF_1NalTpn5bIDIF0-9" value="" style="endArrow=classic;html=1;rounded=0;curved=1;dashed=1;strokeColor=light-dark(#ed0202, #ededed);entryX=0.008;entryY=0.619;entryDx=0;entryDy=0;entryPerimeter=0;" edge="1" parent="1" target="eE654J8oK0YXcX-Fjtj6-2">
          <mxGeometry width="50" height="50" relative="1" as="geometry">
            <mxPoint x="400" y="200" as="sourcePoint" />
            <mxPoint x="401" y="230" as="targetPoint" />
            <Array as="points">
              <mxPoint x="430" y="210" />
            </Array>
          </mxGeometry>
        </mxCell>
        <mxCell id="QCRAF_1NalTpn5bIDIF0-11" value="节点" style="text;html=1;align=center;verticalAlign=middle;whiteSpace=wrap;rounded=0;" vertex="1" parent="1">
          <mxGeometry x="210" y="200" width="60" height="30" as="geometry" />
        </mxCell>
        <mxCell id="QCRAF_1NalTpn5bIDIF0-12" value="节点" style="text;html=1;align=center;verticalAlign=middle;whiteSpace=wrap;rounded=0;" vertex="1" parent="1">
          <mxGeometry x="440" y="200" width="60" height="30" as="geometry" />
        </mxCell>
        <mxCell id="QCRAF_1NalTpn5bIDIF0-13" value="" style="endArrow=classic;html=1;rounded=0;curved=1;dashed=1;strokeColor=light-dark(#ff0000, #ededed);" edge="1" parent="1">
          <mxGeometry width="50" height="50" relative="1" as="geometry">
            <mxPoint x="310" y="226.05" as="sourcePoint" />
            <mxPoint x="310" y="200" as="targetPoint" />
            <Array as="points">
              <mxPoint x="280" y="216" />
            </Array>
          </mxGeometry>
        </mxCell>
      </root>
    </mxGraphModel>
  </diagram>
</mxfile>
